<?xml version="1.0" encoding="UTF-8" standalone="no"?>
<svg
   width="1200"
   height="1200"
   viewBox="0 0 1200 1200"
   role="img"
   aria-labelledby="title desc"
   version="1.1"
   id="svg53"
   sodipodi:docname="spritz_logo.svg"
   xmlns:inkscape="http://www.inkscape.org/namespaces/inkscape"
   xmlns:sodipodi="http://sodipodi.sourceforge.net/DTD/sodipodi-0.dtd"
   xmlns="http://www.w3.org/2000/svg"
   xmlns:svg="http://www.w3.org/2000/svg">
  <sodipodi:namedview
     id="namedview53"
     pagecolor="#ffffff"
     bordercolor="#000000"
     borderopacity="0.25"
     inkscape:showpageshadow="2"
     inkscape:pageopacity="0.0"
     inkscape:pagecheckerboard="0"
     inkscape:deskcolor="#d1d1d1" />
  <title
     id="title">Spritz logo</title>
  <desc
     id="desc">Vector SVG logo for Spritz atmospheric dispersion modeling, with sunrise, mountains, sea, satellite, antenna, plume and particles.</desc>
  <defs
     id="defs13">
    <radialGradient
       id="sky"
       cx="38%"
       cy="30%"
       r="75%">
      <stop
         offset="0"
         stop-color="#ffdd5e"
         id="stop1" />
      <stop
         offset="0.21"
         stop-color="#ff9a2e"
         id="stop2" />
      <stop
         offset="0.48"
         stop-color="#83c9df"
         id="stop3" />
      <stop
         offset="1"
         stop-color="#0b63b6"
         id="stop4" />
    </radialGradient>
    <linearGradient
       id="sea"
       x1="0"
       x2="1"
       y1="0"
       y2="1">
      <stop
         offset="0"
         stop-color="#00b6e7"
         id="stop5" />
      <stop
         offset="1"
         stop-color="#00458e"
         id="stop6" />
    </linearGradient>
    <linearGradient
       id="mount"
       x1="0"
       x2="1">
      <stop
         offset="0"
         stop-color="#0e7d43"
         id="stop7" />
      <stop
         offset="1"
         stop-color="#9fd33f"
         id="stop8" />
    </linearGradient>
    <linearGradient
       id="word"
       x1="0"
       x2="1">
      <stop
         offset="0"
         stop-color="#083c86"
         id="stop9" />
      <stop
         offset="1"
         stop-color="#1081d6"
         id="stop10" />
    </linearGradient>
    <linearGradient
       id="plume"
       x1="0"
       x2="1">
      <stop
         offset="0"
         stop-color="#f7c64e"
         id="stop11" />
      <stop
         offset="0.45"
         stop-color="#6cc34a"
         id="stop12" />
      <stop
         offset="1"
         stop-color="#26a7df"
         id="stop13" />
    </linearGradient>
    <clipPath
       id="discClip">
      <circle
         cx="600"
         cy="430"
         r="285"
         id="circle13" />
    </clipPath>
  </defs>
  <g
     id="emblem">
    <path
       id="circle14"
       style="opacity:0.92;fill:#ffffff"
       d="M 892,430 A 292,292 0 0 1 600,722 292,292 0 0 1 308,430 292,292 0 0 1 600,138 292,292 0 0 1 892,430 Z" />
    <path
       id="circle15"
       style="fill:url(#sky)"
       d="M 885,430 A 285,285 0 0 1 600,715 285,285 0 0 1 315,430 285,285 0 0 1 600,145 285,285 0 0 1 885,430 Z" />
    <g
       clip-path="url(#discClip)"
       id="g52">
      <path
         id="circle16"
         style="fill:#ffd44d"
         d="m 522,310 a 92,92 0 0 1 -92,92 92,92 0 0 1 -92,-92 92,92 0 0 1 92,-92 92,92 0 0 1 92,92 z" />
      <path
         d="M252 348 C326 286 436 292 507 351 C594 301 735 326 809 398 L809 505 L252 505 Z"
         fill="#ecfbff"
         opacity="0.88"
         id="path16" />
      <path
         d="M256 383 C344 324 419 386 507 355 C576 330 662 350 731 404 C790 372 855 409 917 457 L917 506 L256 506 Z"
         fill="#d8eef4"
         opacity="0.92"
         id="path17" />
      <path
         d="M205 510 L310 405 L390 510 Z"
         fill="#006b43"
         id="path18" />
      <path
         d="M291 510 L428 345 L550 510 Z"
         fill="url(#mount)"
         id="path19" />
      <path
         d="M448 510 L610 335 L760 510 Z"
         fill="#1f9d56"
         id="path20" />
      <path
         d="M392 505 L495 384 L615 505 Z"
         fill="#b6db38"
         opacity="0.92"
         id="path21" />
      <path
         d="M225 520 C365 492 464 534 592 506 C746 474 849 508 1002 483 L1002 650 L225 650 Z"
         fill="#063f78"
         id="path22" />
      <path
         d="M214 585 C340 538 455 573 570 544 C704 510 836 538 1012 510 L1012 713 L214 713 Z"
         fill="url(#sea)"
         id="path23" />
      <path
         d="M246 633 C368 598 480 634 602 597 C744 553 847 592 980 560"
         fill="none"
         stroke="#d9f8ff"
         stroke-width="14"
         stroke-linecap="round"
         opacity="0.92"
         id="path24" />
      <path
         d="M235 675 C367 628 486 672 619 637 C756 601 864 627 991 597"
         fill="none"
         stroke="#ffffff"
         stroke-width="10"
         stroke-linecap="round"
         opacity="0.78"
         id="path25" />
      <g
         id="industry"
         transform="translate(706 402)">
        <path
           id="rect25"
           style="fill:#071e3a"
           d="m 74,105 h 24 c 3.324,0 6,2.676 6,6 v 130 c 0,3.324 -2.676,6 -6,6 H 74 c -3.324,0 -6,-2.676 -6,-6 V 111 c 0,-3.324 2.676,-6 6,-6 z" />
        <path
           id="rect26"
           style="fill:#082747"
           d="m 5,167 h 168 c 2.77,0 5,2.23 5,5 v 70 c 0,2.77 -2.23,5 -5,5 H 5 c -2.77,0 -5,-2.23 -5,-5 v -70 c 0,-2.77 2.23,-5 5,-5 z" />
        <path
           id="rect27"
           style="fill:#082747"
           d="m 120,128 h 29 v 119 h -29 z" />
        <path
           d="M36 167 L78 137 L120 167 Z"
           fill="#0a335e"
           id="path27" />
        <path
           d="M81 103 C122 58 192 64 230 97 C176 111 126 127 81 103 Z"
           fill="#a6b4ba"
           opacity="0.74"
           id="path28" />
        <path
           d="M84 90 C118 56 174 54 214 82"
           fill="none"
           stroke="#c7d3d5"
           stroke-width="30"
           stroke-linecap="round"
           opacity="0.82"
           id="path29" />
        <path
           d="M146 73 C177 50 223 55 252 83"
           fill="none"
           stroke="#e1e9ea"
           stroke-width="24"
           stroke-linecap="round"
           opacity="0.78"
           id="path30" />
      </g>
      <path
         id="dispersion-band"
         d="M548 515 C623 445 733 443 833 509 C739 541 646 594 565 648 C463 603 390 574 289 582 C390 555 479 565 548 515 Z"
         fill="url(#plume)"
         opacity="0.68" />
      <g
         id="particles"
         fill="#f7ce38">
        <path
           id="circle30"
           d="m 565,521 a 8,8 0 0 1 -8,8 8,8 0 0 1 -8,-8 8,8 0 0 1 8,-8 8,8 0 0 1 8,8 z" />
        <path
           id="circle31"
           d="m 603,516 a 7,7 0 0 1 -7,7 7,7 0 0 1 -7,-7 7,7 0 0 1 7,-7 7,7 0 0 1 7,7 z" />
        <path
           id="circle32"
           d="m 636,528 a 6,6 0 0 1 -6,6 6,6 0 0 1 -6,-6 6,6 0 0 1 6,-6 6,6 0 0 1 6,6 z" />
        <path
           id="circle33"
           d="m 671,540 a 5,5 0 0 1 -5,5 5,5 0 0 1 -5,-5 5,5 0 0 1 5,-5 5,5 0 0 1 5,5 z" />
        <path
           id="circle34"
           d="m 708,552 a 5,5 0 0 1 -5,5 5,5 0 0 1 -5,-5 5,5 0 0 1 5,-5 5,5 0 0 1 5,5 z" />
        <path
           id="circle35"
           d="m 540,555 a 5,5 0 0 1 -5,5 5,5 0 0 1 -5,-5 5,5 0 0 1 5,-5 5,5 0 0 1 5,5 z" />
        <path
           id="circle36"
           d="m 585,562 a 6,6 0 0 1 -6,6 6,6 0 0 1 -6,-6 6,6 0 0 1 6,-6 6,6 0 0 1 6,6 z" />
        <path
           id="circle37"
           d="m 621,579 a 5,5 0 0 1 -5,5 5,5 0 0 1 -5,-5 5,5 0 0 1 5,-5 5,5 0 0 1 5,5 z" />
        <path
           id="circle38"
           d="m 654,595 a 4,4 0 0 1 -4,4 4,4 0 0 1 -4,-4 4,4 0 0 1 4,-4 4,4 0 0 1 4,4 z" />
        <path
           id="circle39"
           d="m 695,611 a 4,4 0 0 1 -4,4 4,4 0 0 1 -4,-4 4,4 0 0 1 4,-4 4,4 0 0 1 4,4 z" />
      </g>
      <g
         fill="#18a0dd"
         opacity="0.95"
         id="g44">
        <path
           id="circle40"
           d="m 753,563 a 5,5 0 0 1 -5,5 5,5 0 0 1 -5,-5 5,5 0 0 1 5,-5 5,5 0 0 1 5,5 z" />
        <path
           id="circle41"
           d="m 788,573 a 6,6 0 0 1 -6,6 6,6 0 0 1 -6,-6 6,6 0 0 1 6,-6 6,6 0 0 1 6,6 z" />
        <path
           id="circle42"
           d="m 822,588 a 5,5 0 0 1 -5,5 5,5 0 0 1 -5,-5 5,5 0 0 1 5,-5 5,5 0 0 1 5,5 z" />
        <path
           id="circle43"
           d="m 861,602 a 5,5 0 0 1 -5,5 5,5 0 0 1 -5,-5 5,5 0 0 1 5,-5 5,5 0 0 1 5,5 z" />
        <path
           id="circle44"
           d="m 896,618 a 4,4 0 0 1 -4,4 4,4 0 0 1 -4,-4 4,4 0 0 1 4,-4 4,4 0 0 1 4,4 z" />
      </g>
      <g
         id="satellite"
         transform="translate(715 182) rotate(25)">
        <path
           id="rect44"
           style="fill:#eef8ff;stroke:#064381;stroke-width:8"
           d="m 12,44 h 88 c 6.648,0 12,5.352 12,12 v 30 c 0,6.648 -5.352,12 -12,12 H 12 C 5.352,98 0,92.648 0,86 V 56 C 0,49.352 5.352,44 12,44 Z" />
        <path
           id="rect45"
           style="fill:#0d62bd;stroke:#eef8ff;stroke-width:6"
           d="m -81,37 h 65 c 2.77,0 5,2.23 5,5 v 57 c 0,2.77 -2.23,5 -5,5 h -65 c -2.77,0 -5,-2.23 -5,-5 V 42 c 0,-2.77 2.23,-5 5,-5 z" />
        <path
           id="rect46"
           style="fill:#0d62bd;stroke:#eef8ff;stroke-width:6"
           d="m 131,37 h 65 c 2.77,0 5,2.23 5,5 v 57 c 0,2.77 -2.23,5 -5,5 h -65 c -2.77,0 -5,-2.23 -5,-5 V 42 c 0,-2.77 2.23,-5 5,-5 z" />
        <path
           d="M-62 37 L-62 104 M-37 37 L-37 104 M151 37 L151 104 M176 37 L176 104"
           stroke="#bce6ff"
           stroke-width="5"
           id="path46" />
        <path
           id="circle46"
           style="fill:#083d78"
           d="M 79,71 A 23,23 0 0 1 56,94 23,23 0 0 1 33,71 23,23 0 0 1 56,48 23,23 0 0 1 79,71 Z" />
      </g>
      <g
         id="antenna"
         transform="translate(814 370) rotate(-20)">
        <path
           d="M0 135 C50 80 90 40 118 0 C104 90 72 142 0 135 Z"
           fill="#e8f6ff"
           stroke="#063a77"
           stroke-width="10"
           id="path47" />
        <path
           d="M10 112 C48 102 85 68 108 22"
           fill="none"
           stroke="#54a9dc"
           stroke-width="8"
           opacity="0.8"
           id="path48" />
        <path
           id="rect48"
           style="fill:#08335f"
           d="m -5,130 h 20 c 4.432,0 8,3.568 8,8 v 96 c 0,4.432 -3.568,8 -8,8 H -5 c -4.432,0 -8,-3.568 -8,-8 v -96 c 0,-4.432 3.568,-8 8,-8 z" />
        <path
           d="M22 20 C56 -18 101 -32 144 -18"
           fill="none"
           stroke="#71c8ef"
           stroke-width="8"
           stroke-linecap="round"
           opacity="0.54"
           id="path49" />
        <path
           d="M38 45 C67 18 104 10 139 20"
           fill="none"
           stroke="#71c8ef"
           stroke-width="7"
           stroke-linecap="round"
           opacity="0.52"
           id="path50" />
      </g>
      <path
         d="M624 337 c28 -20 54 -20 82 0 c-28 -7 -54 -7 -82 0 Z"
         fill="#09294d"
         opacity="0.84"
         id="path51" />
      <path
         d="M684 360 c23 -16 46 -16 69 0 c-23 -6 -46 -6 -69 0 Z"
         fill="#09294d"
         opacity="0.84"
         id="path52" />
    </g>
    <path
       id="circle52"
       style="opacity:0.85;fill:none;stroke:#ffffff;stroke-width:11"
       d="M 885,430 A 285,285 0 0 1 600,715 285,285 0 0 1 315,430 285,285 0 0 1 600,145 285,285 0 0 1 885,430 Z" />
  </g>
  <g
     id="wordmark">
    <path
       d="m 470.19287,858.36914 q 0,21.22559 -15.79101,32.50488 -15.68848,11.17676 -46.14258,11.17676 -27.78809,0 -43.5791,-9.84375 -15.79102,-9.84375 -20.30274,-29.83887 l 29.22363,-4.81933 q 2.97364,11.48437 11.58692,16.71387 8.61328,5.12695 23.8916,5.12695 31.68457,0 31.68457,-19.27735 0,-6.15234 -3.69141,-10.15136 -3.58886,-3.99903 -10.2539,-6.66504 -6.5625,-2.66602 -25.32715,-6.45996 -16.20117,-3.79395 -22.55859,-6.04981 -6.35743,-2.3584 -11.48438,-5.43457 -5.12695,-3.17871 -8.71582,-7.58789 -3.58887,-4.40918 -5.63965,-10.35644 -1.94824,-5.94727 -1.94824,-13.6377 0,-19.58496 14.66309,-29.94141 14.76562,-10.45898 42.86132,-10.45898 26.86524,0 40.29786,8.4082 13.53515,8.40821 17.43164,27.78809 l -29.32618,3.99902 q -2.25586,-9.33105 -9.22851,-14.04785 -6.87012,-4.7168 -19.79004,-4.7168 -27.48047,0 -27.48047,17.22657 0,5.63965 2.87109,9.22851 2.97364,3.58887 8.71582,6.15235 5.74219,2.56347 23.27637,6.25488 20.81543,4.40918 29.73633,8.20312 9.02344,3.69141 14.25293,8.71582 5.22949,4.92188 7.99805,11.89454 2.76855,6.87011 2.76855,15.89355 z m 115.86621,-14.35547 q 0,27.78809 -11.17676,42.96387 -11.07421,15.07324 -31.37695,15.07324 -11.68945,0 -20.40527,-5.02441 -8.61328,-5.12696 -13.22754,-14.66309 h -0.61524 q 0.61524,3.07617 0.61524,18.66211 V 943.5791 H 481.05908 V 814.58496 q 0,-15.68848 -0.82031,-25.53223 h 27.99316 q 0.5127,1.84571 0.82032,7.28028 0.41015,5.43457 0.41015,10.7666 h 0.41016 q 9.74121,-20.40527 35.47851,-20.40527 19.37989,0 30.04395,14.9707 10.66406,14.86816 10.66406,42.34863 z m -30.04394,0 q 0,-37.32422 -22.86621,-37.32422 -11.48438,0 -17.63672,10.04883 -6.04981,10.04883 -6.04981,28.0957 0,17.94434 6.04981,27.78809 6.15234,9.74121 17.43164,9.74121 23.07129,0 23.07129,-38.34961 z M 597.33545,900 v -84.90234 q 0,-9.12598 -0.30762,-15.17579 -0.20508,-6.15234 -0.51269,-10.86914 h 27.48047 q 0.30761,1.84571 0.82031,11.2793 0.51269,9.33106 0.51269,12.40723 h 0.41016 q 4.2041,-11.68946 7.48535,-16.40625 3.28125,-4.81934 7.79297,-7.0752 4.51172,-2.3584 11.2793,-2.3584 5.53711,0 8.9209,1.53809 v 24.09668 q -6.97266,-1.53809 -12.30469,-1.53809 -10.7666,0 -16.81641,8.71582 -5.94726,8.71582 -5.94726,25.83985 V 900 Z m 69.72363,0 V 789.05273 h 28.81348 V 900 Z m 0,-130.94238 v -21.22559 h 28.81348 v 21.22559 z m 74.74805,132.78808 q -12.71484,0 -19.58496,-6.87011 -6.87012,-6.97266 -6.87012,-21.02051 V 808.53516 H 701.3042 v -19.48243 h 15.4834 l 9.02344,-26.04492 h 18.04687 v 26.04492 h 21.02051 v 19.48243 h -21.02051 v 57.62695 q 0,8.10059 3.07617,11.99707 3.07617,3.79394 9.53613,3.79394 3.38379,0 9.63868,-1.43554 v 17.84179 q -10.66407,3.48633 -24.30176,3.48633 z M 765.08057,900 v -20.40527 l 52.19238,-69.72657 h -47.98828 v -20.81543 h 79.77539 v 20.61036 l -51.88477,69.3164 h 56.90918 V 900 Z"
       id="text52"
       style="font-weight:800;font-size:210px;font-family:'Avenir Next', Montserrat, Arial, sans-serif;letter-spacing:-12;text-anchor:middle;fill:url(#word);stroke:#022c66;stroke-width:3"
       aria-label="Spritz" />
    <path
       d="m 192.05811,972 -3.05176,-8.78906 H 175.896 L 172.84424,972 h -7.20215 l 12.54883,-34.39941 h 8.49609 l 12.5,34.39941 z m -4.66309,-14.20898 -3.39356,-9.8877 -1.5625,-5.00488 q -0.39062,1.41601 -0.73242,2.53906 -0.34179,1.12305 -4.19922,12.35352 z m 25.36426,14.64843 q -3.02735,0 -4.66309,-1.63574 -1.63574,-1.66016 -1.63574,-5.00488 v -15.57617 h -3.34473 v -4.63868 h 3.68653 l 2.14843,-6.20117 h 4.29688 v 6.20117 h 5.00488 v 4.63868 h -5.00488 v 13.7207 q 0,1.92871 0.73242,2.85644 0.73242,0.90332 2.27051,0.90332 0.80566,0 2.29492,-0.34179 v 4.24804 q -2.53906,0.83008 -5.78613,0.83008 z M 240.19873,972 v -14.81934 q 0,-6.958 -4.00391,-6.958 -2.07519,0 -3.39355,2.12402 -1.29395,2.12402 -1.29395,5.49316 V 972 h -6.86035 v -20.50781 q 0,-2.12403 -0.0732,-3.4668 -0.0488,-1.36719 -0.12207,-2.44141 h 6.54297 q 0.0732,0.46387 0.19531,2.49024 0.12207,2.00195 0.12207,2.75879 h 0.0977 q 1.26953,-3.02735 3.14941,-4.39453 1.9043,-1.36719 4.54102,-1.36719 6.05469,0 7.34863,5.76172 h 0.14648 q 1.34278,-3.07617 3.22266,-4.41895 1.87988,-1.34277 4.78516,-1.34277 3.85742,0 5.88379,2.63672 2.02636,2.6123 2.02636,7.51953 V 972 h -6.81152 v -14.81934 q 0,-6.958 -4.00391,-6.958 -2.00195,0 -3.29589,1.95312 -1.26954,1.92871 -1.39161,5.34668 V 972 Z m 56.00391,-13.23242 q 0,6.4209 -3.56446,10.08301 -3.56445,3.63769 -9.86328,3.63769 -6.17676,0 -9.69238,-3.66211 -3.51563,-3.66211 -3.51563,-10.05859 0,-6.37207 3.51563,-10.00977 3.51562,-3.66211 9.83887,-3.66211 6.46972,0 9.86328,3.54004 3.41797,3.51563 3.41797,10.13184 z m -7.17774,0 q 0,-4.71192 -1.53808,-6.83594 -1.53809,-2.12402 -4.46778,-2.12402 -6.25,0 -6.25,8.95996 0,4.41894 1.51367,6.73828 1.53809,2.29492 4.41895,2.29492 6.32324,0 6.32324,-9.0332 z m 36.8877,5.51758 q 0,3.833 -3.14942,6.03027 -3.125,2.17285 -8.66699,2.17285 -5.44433,0 -8.34961,-1.70898 -2.88086,-1.7334 -3.83301,-5.3711 l 6.03028,-0.90332 q 0.51269,1.87989 1.75781,2.66114 1.26953,0.78125 4.39453,0.78125 2.88086,0 4.19922,-0.73243 1.31836,-0.73242 1.31836,-2.29492 0,-1.26953 -1.07422,-2.00195 -1.0498,-0.75684 -3.58887,-1.26953 -5.81054,-1.14746 -7.83691,-2.12403 -2.02637,-1.00097 -3.10059,-2.56347 -1.0498,-1.58692 -1.0498,-3.88184 0,-3.78418 2.90527,-5.88379 2.92969,-2.12402 8.27637,-2.12402 4.71191,0 7.56836,1.83105 2.88086,1.83106 3.58887,5.29786 l -6.07911,0.63476 q -0.29296,-1.61133 -1.44043,-2.39258 -1.14746,-0.80566 -3.63769,-0.80566 -2.44141,0 -3.66211,0.63476 -1.2207,0.61036 -1.2207,2.0752 0,1.14746 0.92773,1.83105 0.95215,0.65918 3.17383,1.09864 3.10059,0.63476 5.49316,1.31836 2.417,0.65918 3.85743,1.58691 1.46484,0.92773 2.31933,2.39258 0.87891,1.44043 0.87891,3.71094 z m 32.54199,-5.61524 q 0,6.61621 -2.66113,10.22949 -2.63672,3.58887 -7.47071,3.58887 -2.7832,0 -4.85839,-1.19629 -2.05079,-1.2207 -3.14942,-3.49121 h -0.14648 q 0.14648,0.73242 0.14648,4.44336 v 10.13184 h -6.86035 v -30.71289 q 0,-3.73536 -0.19531,-6.07911 h 6.66504 q 0.12207,0.43946 0.19531,1.7334 0.0977,1.29395 0.0977,2.56348 h 0.0976 q 2.31934,-4.8584 8.44727,-4.8584 4.61425,0 7.15332,3.56445 2.53906,3.54004 2.53906,10.08301 z m -7.15332,0 q 0,-8.88672 -5.44434,-8.88672 -2.73437,0 -4.19922,2.39258 -1.44042,2.39258 -1.44042,6.68945 0,4.27247 1.44042,6.61622 1.46485,2.31933 4.1504,2.31933 5.49316,0 5.49316,-9.13086 z m 21.45801,-7.8125 q 1.3916,-3.02734 3.49121,-4.39453 2.09961,-1.36719 5.00488,-1.36719 4.19922,0 6.44531,2.58789 2.2461,2.58789 2.2461,7.56836 V 972 h -6.83594 v -14.79492 q 0,-6.95801 -4.71191,-6.95801 -2.49024,0 -4.02832,2.14844 -1.51368,2.12402 -1.51368,5.46875 V 972 h -6.86035 v -36.23047 h 6.86035 v 9.8877 q 0,2.66113 -0.19531,5.20019 z m 36.59472,21.63086 q -5.95703,0 -9.15527,-3.51562 -3.19824,-3.54004 -3.19824,-10.30274 0,-6.54297 3.24707,-10.05859 3.24707,-3.51563 9.2041,-3.51563 5.68848,0 8.69141,3.78418 3.00293,3.75977 3.00293,11.03516 v 0.19531 h -16.94336 q 0,3.85742 1.41601,5.83496 1.44043,1.95313 4.07715,1.95313 3.6377,0 4.58984,-3.14942 l 6.46973,0.56153 q -2.80762,7.17773 -11.40137,7.17773 z m 0,-23.07129 q -2.41699,0 -3.73535,1.68457 -1.29394,1.68457 -1.36719,4.71192 h 10.25391 q -0.19531,-3.19825 -1.53808,-4.78516 -1.34278,-1.61133 -3.61329,-1.61133 z M 428.34619,972 v -20.21484 q 0,-2.17286 -0.0732,-3.61329 -0.0488,-1.46484 -0.12207,-2.58789 h 6.54297 q 0.0732,0.43946 0.19531,2.68555 0.12207,2.22168 0.12207,2.9541 h 0.0977 q 1.00097,-2.7832 1.78222,-3.90625 0.78125,-1.14746 1.85547,-1.68457 1.07422,-0.56152 2.68555,-0.56152 1.31836,0 2.12402,0.36621 v 5.7373 q -1.66015,-0.36621 -2.92969,-0.36621 -2.56347,0 -4.0039,2.0752 -1.41602,2.07519 -1.41602,6.15234 V 972 Z m 21.45801,0 v -26.41602 h 6.86035 V 972 Z m 0,-31.17676 v -5.05371 h 6.86035 v 5.05371 z m 26.90234,31.66504 q -6.00586,0 -9.27734,-3.56445 -3.27149,-3.58887 -3.27149,-9.98535 0,-6.54297 3.2959,-10.18067 3.2959,-3.66211 9.35059,-3.66211 4.66309,0 7.71484,2.34375 3.05176,2.34375 3.83301,6.46973 l -6.90918,0.3418 q -0.29297,-2.02637 -1.46484,-3.22266 -1.17188,-1.2207 -3.32032,-1.2207 -5.29785,0 -5.29785,8.8623 0,9.13086 5.39551,9.13086 1.95313,0 3.27149,-1.2207 1.31835,-1.24512 1.63574,-3.68653 l 6.88476,0.31739 q -0.36621,2.70996 -1.95312,4.83398 -1.5625,2.12403 -4.12598,3.2959 -2.56347,1.14746 -5.76172,1.14746 z m 65.20606,-17.94433 q 0,5.32226 -2.09961,9.30175 -2.0752,3.95508 -5.9082,6.05469 Q 530.09619,972 525.16455,972 h -13.91601 v -34.39941 h 12.45117 q 8.6914,0 13.45215,4.39453 4.76074,4.37011 4.76074,12.54883 z m -7.25098,0 q 0,-5.542 -2.88086,-8.44727 -2.88086,-2.92969 -8.22754,-2.92969 h -5.10254 v 23.2666 h 6.10352 q 4.63867,0 7.37305,-3.19824 2.73437,-3.19824 2.73437,-8.6914 z M 549.50342,972 v -26.41602 h 6.86035 V 972 Z m 0,-31.17676 v -5.05371 h 6.86035 v 5.05371 z m 38.15722,23.46192 q 0,3.833 -3.14941,6.03027 -3.125,2.17285 -8.66699,2.17285 -5.44434,0 -8.34961,-1.70898 -2.88086,-1.7334 -3.83301,-5.3711 l 6.03027,-0.90332 q 0.5127,1.87989 1.75782,2.66114 1.26953,0.78125 4.39453,0.78125 2.88086,0 4.19922,-0.73243 1.31836,-0.73242 1.31836,-2.29492 0,-1.26953 -1.07422,-2.00195 -1.04981,-0.75684 -3.58887,-1.26953 -5.81055,-1.14746 -7.83691,-2.12403 -2.02637,-1.00097 -3.10059,-2.56347 -1.0498,-1.58692 -1.0498,-3.88184 0,-3.78418 2.90527,-5.88379 2.92969,-2.12402 8.27637,-2.12402 4.71191,0 7.56836,1.83105 2.88086,1.83106 3.58886,5.29786 l -6.0791,0.63476 q -0.29297,-1.61133 -1.44043,-2.39258 -1.14746,-0.80566 -3.63769,-0.80566 -2.44141,0 -3.66211,0.63476 -1.22071,0.61036 -1.22071,2.0752 0,1.14746 0.92774,1.83105 0.95215,0.65918 3.17383,1.09864 3.10058,0.63476 5.49316,1.31836 2.41699,0.65918 3.85742,1.58691 1.46485,0.92773 2.31934,2.39258 0.8789,1.44043 0.8789,3.71094 z m 32.542,-5.61524 q 0,6.61621 -2.66114,10.22949 -2.63671,3.58887 -7.4707,3.58887 -2.7832,0 -4.8584,-1.19629 -2.05078,-1.2207 -3.14941,-3.49121 h -0.14649 q 0.14649,0.73242 0.14649,4.44336 v 10.13184 h -6.86035 v -30.71289 q 0,-3.73536 -0.19532,-6.07911 h 6.66504 q 0.12207,0.43946 0.19532,1.7334 0.0977,1.29395 0.0977,2.56348 h 0.0977 q 2.31933,-4.8584 8.44726,-4.8584 4.61426,0 7.15332,3.56445 2.53907,3.54004 2.53907,10.08301 z m -7.15332,0 q 0,-8.88672 -5.44434,-8.88672 -2.73437,0 -4.19922,2.39258 -1.44043,2.39258 -1.44043,6.68945 0,4.27247 1.44043,6.61622 1.46485,2.31933 4.15039,2.31933 5.49317,0 5.49317,-9.13086 z m 25.51074,13.81836 q -5.95703,0 -9.15527,-3.51562 -3.19825,-3.54004 -3.19825,-10.30274 0,-6.54297 3.24707,-10.05859 3.24707,-3.51563 9.2041,-3.51563 5.68848,0 8.69141,3.78418 3.00293,3.75977 3.00293,11.03516 v 0.19531 h -16.94336 q 0,3.85742 1.41602,5.83496 1.44043,1.95313 4.07715,1.95313 3.63769,0 4.58984,-3.14942 l 6.46973,0.56153 q -2.80762,7.17773 -11.40137,7.17773 z m 0,-23.07129 q -2.41699,0 -3.73535,1.68457 -1.29395,1.68457 -1.36719,4.71192 h 10.25391 q -0.19532,-3.19825 -1.53809,-4.78516 -1.34277,-1.61133 -3.61328,-1.61133 z M 657.55225,972 v -20.21484 q 0,-2.17286 -0.0732,-3.61329 -0.0488,-1.46484 -0.12207,-2.58789 h 6.54297 q 0.0732,0.43946 0.19531,2.68555 0.12208,2.22168 0.12208,2.9541 h 0.0976 q 1.00098,-2.7832 1.78223,-3.90625 0.78125,-1.14746 1.85547,-1.68457 1.07422,-0.56152 2.68554,-0.56152 1.31836,0 2.12403,0.36621 v 5.7373 q -1.66016,-0.36621 -2.92969,-0.36621 -2.56348,0 -4.00391,2.0752 -1.41601,2.07519 -1.41601,6.15234 V 972 Z m 43.72363,-7.71484 q 0,3.833 -3.14942,6.03027 -3.125,2.17285 -8.66699,2.17285 -5.44433,0 -8.34961,-1.70898 -2.88086,-1.7334 -3.833,-5.3711 l 6.03027,-0.90332 q 0.51269,1.87989 1.75781,2.66114 1.26953,0.78125 4.39453,0.78125 2.88086,0 4.19922,-0.73243 1.31836,-0.73242 1.31836,-2.29492 0,-1.26953 -1.07422,-2.00195 -1.0498,-0.75684 -3.58887,-1.26953 -5.81054,-1.14746 -7.83691,-2.12403 -2.02637,-1.00097 -3.10059,-2.56347 -1.0498,-1.58692 -1.0498,-3.88184 0,-3.78418 2.90527,-5.88379 2.92969,-2.12402 8.27637,-2.12402 4.71191,0 7.56836,1.83105 2.88086,1.83106 3.58887,5.29786 l -6.0791,0.63476 q -0.29297,-1.61133 -1.44043,-2.39258 -1.14746,-0.80566 -3.6377,-0.80566 -2.44141,0 -3.66211,0.63476 -1.2207,0.61036 -1.2207,2.0752 0,1.14746 0.92773,1.83105 0.95215,0.65918 3.17383,1.09864 3.10059,0.63476 5.49316,1.31836 2.417,0.65918 3.85743,1.58691 1.46484,0.92773 2.31933,2.39258 0.87891,1.44043 0.87891,3.71094 z M 708.81787,972 v -26.41602 h 6.86035 V 972 Z m 0,-31.17676 v -5.05371 h 6.86035 v 5.05371 z m 40.98926,17.94434 q 0,6.4209 -3.56445,10.08301 -3.56446,3.63769 -9.86329,3.63769 -6.17675,0 -9.69238,-3.66211 -3.51562,-3.66211 -3.51562,-10.05859 0,-6.37207 3.51562,-10.00977 3.51563,-3.66211 9.83887,-3.66211 6.46973,0 9.86328,3.54004 3.41797,3.51563 3.41797,10.13184 z m -7.17774,0 q 0,-4.71192 -1.53808,-6.83594 -1.53809,-2.12402 -4.46777,-2.12402 -6.25,0 -6.25,8.95996 0,4.41894 1.51367,6.73828 1.53808,2.29492 4.41894,2.29492 6.32324,0 6.32324,-9.0332 z M 774.36572,972 v -14.81934 q 0,-6.958 -4.71191,-6.958 -2.49024,0 -4.02832,2.14843 -1.51367,2.12403 -1.51367,5.46875 V 972 h -6.86036 v -20.50781 q 0,-2.12403 -0.0732,-3.4668 -0.0488,-1.36719 -0.12207,-2.44141 h 6.54297 q 0.0732,0.46387 0.19531,2.49024 0.12207,2.00195 0.12207,2.75879 h 0.0977 q 1.3916,-3.02735 3.49121,-4.39453 2.09961,-1.36719 5.00488,-1.36719 4.19922,0 6.44532,2.58789 2.24609,2.58789 2.24609,7.56836 V 972 Z m 59.73731,0 v -20.84961 q 0,-0.70801 0,-1.41602 0.0244,-0.708 0.24414,-6.0791 -1.7334,6.56739 -2.56348,9.15528 L 825.58252,972 h -5.12695 l -6.20118,-19.18945 -2.6123,-9.15528 q 0.29297,5.66407 0.29297,7.49512 V 972 h -6.39649 v -34.39941 h 9.64356 l 6.15234,19.23828 1.70899,6.46972 1.53808,-5.51757 6.32325,-20.19043 h 9.59472 V 972 Z m 40.33008,-13.23242 q 0,6.4209 -3.56446,10.08301 -3.56445,3.63769 -9.86328,3.63769 -6.17676,0 -9.69238,-3.66211 -3.51563,-3.66211 -3.51563,-10.05859 0,-6.37207 3.51563,-10.00977 3.51562,-3.66211 9.83887,-3.66211 6.46972,0 9.86328,3.54004 3.41797,3.51563 3.41797,10.13184 z m -7.17774,0 q 0,-4.71192 -1.53808,-6.83594 -1.53809,-2.12402 -4.46778,-2.12402 -6.25,0 -6.25,8.95996 0,4.41894 1.51367,6.73828 1.53809,2.29492 4.41895,2.29492 6.32324,0 6.32324,-9.0332 z M 898.9917,972 q -0.0977,-0.36621 -0.24414,-1.83105 -0.12207,-1.48926 -0.12207,-2.46583 h -0.0977 q -2.22168,4.78516 -8.44726,4.78516 -4.61426,0 -7.12891,-3.58887 -2.51465,-3.61328 -2.51465,-10.083 0,-6.56739 2.63672,-10.13184 2.66113,-3.58887 7.51953,-3.58887 2.80762,0 4.83399,1.17188 2.05078,1.17187 3.14941,3.49121 h 0.0488 l -0.0488,-4.3457 v -9.64356 h 6.86035 v 30.46875 q 0,2.44141 0.19531,5.76172 z m -0.31738,-13.35449 q 0,-4.27246 -1.44043,-6.56739 -1.41602,-2.31933 -4.19922,-2.31933 -2.75879,0 -4.10156,2.24609 -1.34278,2.22168 -1.34278,6.81153 0,8.98437 5.39551,8.98437 2.70996,0 4.19922,-2.36816 1.48926,-2.39258 1.48926,-6.78711 z m 26.56054,13.84277 q -5.95703,0 -9.15527,-3.51562 -3.19824,-3.54004 -3.19824,-10.30274 0,-6.54297 3.24707,-10.05859 3.24707,-3.51563 9.2041,-3.51563 5.68848,0 8.69141,3.78418 3.00293,3.75977 3.00293,11.03516 v 0.19531 H 920.0835 q 0,3.85742 1.41601,5.83496 1.44043,1.95313 4.07715,1.95313 3.6377,0 4.58984,-3.14942 l 6.46973,0.56153 q -2.80762,7.17773 -11.40137,7.17773 z m 0,-23.07129 q -2.41699,0 -3.73535,1.68457 -1.29394,1.68457 -1.36719,4.71192 h 10.25391 q -0.19531,-3.19825 -1.53809,-4.78516 -1.34277,-1.61133 -3.61328,-1.61133 z M 944.22705,972 v -36.23047 h 6.86035 V 972 Z m 15.8916,0 V 945.58398 H 966.979 V 972 Z m 0,-31.17676 v -5.05371 h 6.86035 v 5.05371 z M 993.12451,972 v -14.81934 q 0,-6.958 -4.71191,-6.958 -2.49024,0 -4.02832,2.14843 -1.51367,2.12403 -1.51367,5.46875 V 972 h -6.86036 v -20.50781 q 0,-2.12403 -0.0732,-3.4668 -0.0488,-1.36719 -0.12207,-2.44141 h 6.54297 q 0.0732,0.46387 0.19531,2.49024 0.12207,2.00195 0.12207,2.75879 h 0.0977 q 1.3916,-3.02735 3.49121,-4.39453 2.09961,-1.36719 5.00488,-1.36719 4.19922,0 6.44532,2.58789 2.24609,2.58789 2.24609,7.56836 V 972 Z m 26.48729,10.5957 q -4.834,0 -7.7881,-1.85547 -2.9297,-1.83105 -3.6133,-5.24902 l 6.8604,-0.80566 q 0.3662,1.58691 1.5625,2.49023 1.2207,0.90332 3.1738,0.90332 2.8565,0 4.1748,-1.75781 1.3184,-1.75781 1.3184,-5.22461 v -1.3916 l 0.049,-2.61231 h -0.049 q -2.2705,4.8584 -8.4961,4.8584 -4.6143,0 -7.1533,-3.4668 -2.5391,-3.46679 -2.5391,-9.9121 0,-6.46973 2.6123,-9.98536 2.6123,-3.51562 7.5928,-3.51562 5.7617,0 7.9834,4.76074 h 0.1221 q 0,-0.85449 0.098,-2.31933 0.1221,-1.46485 0.2442,-1.92872 h 6.4941 q -0.1465,2.63672 -0.1465,6.10352 v 19.50684 q 0,5.63964 -3.1982,8.5205 -3.1983,2.88086 -9.3018,2.88086 z m 5.7373,-24.16992 q 0,-4.07715 -1.4648,-6.34766 -1.4405,-2.29492 -4.126,-2.29492 -5.4932,0 -5.4932,8.78907 0,8.61816 5.4444,8.61816 2.7343,0 4.1748,-2.27051 1.4648,-2.29492 1.4648,-6.49414 z"
       id="text53"
       style="font-weight:600;font-size:50px;font-family:'Avenir Next', Montserrat, Arial, sans-serif;letter-spacing:2;text-anchor:middle;fill:#4f6677"
       aria-label="Atmospheric Dispersion Modeling" />
  </g>
</svg>
