<svg xmlns="http://www.w3.org/2000/svg" viewBox="0 0 840 260" role="img" aria-labelledby="title desc">
  <title id="title">Spritz logo</title>
  <desc id="desc">Outlined Spritz wordmark with a clean airflow path and small dispersion puffs.</desc>
  <rect width="840" height="260" fill="none"/>
  <g fill="none" stroke="#10384f" stroke-linecap="round" stroke-linejoin="round">
    <path d="M78 160c38 28 98 23 112-12 9-23-7-39-45-47-36-8-53-18-48-38 7-31 64-42 112-16" stroke-width="15"/>
    <path d="M246 198V69h70c53 0 77 26 66 67-9 35-39 55-82 55h-34" stroke-width="15"/>
    <path d="M414 198V69h70c51 0 74 22 66 58-5 24-22 41-48 50l44 21" stroke-width="15"/>
    <path d="M434 134h42c22 0 36-9 39-26 3-18-8-27-31-27h-50" stroke-width="15"/>
    <path d="M591 69h15l-22 129h-15z" stroke-width="15"/>
    <path d="M644 69h117l-8 43-96 86h112" stroke-width="15"/>
    <path d="M660 69h118" stroke-width="15"/>
    <path d="M304 164c35-3 62-20 86-50 30-39 63-55 101-47" stroke="#2e8f9d" stroke-width="9"/>
    <path d="M594 51c18-19 49-17 64 3" stroke="#2e8f9d" stroke-width="7"/>
  </g>
  <g fill="#5bbfbb">
    <circle cx="700" cy="58" r="8"/>
    <circle cx="732" cy="42" r="5"/>
    <circle cx="756" cy="66" r="6"/>
    <circle cx="793" cy="49" r="4"/>
  </g>
</svg>
